<?xml version="1.0" encoding="UTF-8" standalone="no"?>
<!-- Created with Inkscape (http://www.inkscape.org/) -->

<svg
   version="1.1"
   id="svg1"
   width="512"
   height="512"
   viewBox="0 0 512 512"
   sodipodi:docname="placeholder_weik_logo.svg"
   inkscape:version="1.4.3 (0d15f75042, 2025-12-25)"
   xmlns:inkscape="http://www.inkscape.org/namespaces/inkscape"
   xmlns:sodipodi="http://sodipodi.sourceforge.net/DTD/sodipodi-0.dtd"
   xmlns="http://www.w3.org/2000/svg"
   xmlns:svg="http://www.w3.org/2000/svg">
  <defs
     id="defs1" />
  <sodipodi:namedview
     id="namedview1"
     pagecolor="#ffffff"
     bordercolor="#000000"
     borderopacity="0.25"
     inkscape:showpageshadow="2"
     inkscape:pageopacity="0.0"
     inkscape:pagecheckerboard="0"
     inkscape:deskcolor="#d1d1d1"
     inkscape:zoom="1.4615004"
     inkscape:cx="339.71937"
     inkscape:cy="298.32356"
     inkscape:window-width="2560"
     inkscape:window-height="1376"
     inkscape:window-x="0"
     inkscape:window-y="0"
     inkscape:window-maximized="1"
     inkscape:current-layer="g1"
     showgrid="false">
    <inkscape:grid
       id="grid1"
       units="px"
       originx="0"
       originy="0"
       spacingx="1"
       spacingy="1"
       empcolor="#0099e5"
       empopacity="0.30196078"
       color="#0099e5"
       opacity="0.14901961"
       empspacing="5"
       enabled="true"
       visible="false" />
  </sodipodi:namedview>
  <g
     inkscape:groupmode="layer"
     inkscape:label="Image"
     id="g1">
    <rect
       style="fill:#ffffff;stroke-width:11.8854;stroke-linejoin:round"
       id="rect1"
       width="512"
       height="512"
       x="0"
       y="0" />
    <path
       style="fill:#013571;fill-opacity:1;stroke-width:0.90319"
       d="M -1.000005e-8,256 V 0 H 255.99999 512 V 256 512 H 255.99999 -1.000005e-8 Z M 426.71485,288.21671 c 0,-80.62065 -0.10744,-138.54628 -0.25697,-138.54628 -0.66146,0 -7.19712,2.43237 -10.40573,3.8727 -29.40566,13.19999 -51.18745,42.51892 -64.65307,87.0249 -3.3574,11.09676 -7.59483,29.4499 -9.26675,40.13626 -0.27348,1.74808 -0.58193,3.34222 -0.68542,3.54255 -0.10348,0.20031 -0.42303,-1.0349 -0.71009,-2.74492 -2.4683,-14.70333 -6.73566,-31.97966 -11.15226,-45.14978 -5.23255,-15.60319 -12.84428,-31.63354 -20.23666,-42.61851 -13.38862,-19.89529 -30.27015,-33.34724 -50.44861,-40.1997 l -2.88276,-0.97896 -2.32108,0.76439 c -9.91919,3.2666 -19.14358,8.22773 -27.90663,15.00893 -4.12449,3.1917 -12.92234,11.91534 -16.29672,16.15929 -16.2337,20.41699 -27.9173,47.68257 -35.41069,82.63657 -1.26926,5.9206 -3.2077,16.24223 -3.24483,17.27771 -0.0395,1.10099 -0.22764,0.24557 -1.55475,-7.06811 -8.69141,-47.8985 -23.67061,-82.25321 -45.40153,-104.1282 -6.69113,-6.73548 -12.75947,-11.45503 -20.2979,-15.78632 -5.026671,-2.88814 -14.195997,-6.89444 -17.378267,-7.59299 L 85.28515,149.62451 V 288.19374 426.76298 H 255.99999 426.71485 Z M 93.958217,360.59593 V 303.09707 H 255.99999 418.04178 v 57.49886 57.49887 H 255.99999 93.958217 Z m 63.024283,39.58465 v -13.58013 l 14.67194,-0.003 c 20.8482,-0.004 27.60693,-0.42955 37.15885,-2.34116 25.54801,-5.11287 40.49406,-17.97456 41.45812,-35.67644 0.31019,-5.69537 -0.64917,-10.79632 -2.9425,-15.64546 -6.97011,-14.73796 -24.50917,-23.55297 -50.73942,-25.50126 -2.38017,-0.1768 -22.37268,-0.29017 -51.24336,-0.2906 l -47.340482,-7e-4 v 53.30925 53.30926 h 29.488432 29.48842 z m 0,-56.73324 v -28.79271 l 1.66234,9e-4 c 5.23068,0.003 13.40085,1.33482 17.88141,2.91462 11.71424,4.13031 17.75019,11.80189 18.50597,23.52069 0.24234,3.7577 -0.25466,7.41417 -1.43448,10.55341 -4.14863,11.03868 -18.17006,19.58592 -33.50739,20.4256 l -3.10785,0.17014 z m 156.47495,45.44319 0.0739,-24.87019 21.93443,24.87019 21.93443,24.87019 h 28.32345 28.32346 l -1.97782,-2.24446 c -9.87423,-11.20549 -41.59801,-47.53252 -41.64473,-47.6876 -0.033,-0.10937 9.74255,-12.87607 21.72338,-28.37042 l 21.78332,-28.17156 -28.8064,-0.0745 c -15.84352,-0.041 -28.94379,-0.0222 -29.11171,0.0416 -0.16792,0.0638 -9.79502,12.2317 -21.39356,27.03961 l -21.08825,26.92347 -0.0737,-27.03738 -0.0737,-27.03736 h -28.33053 -28.33054 v 53.30925 53.30925 h 28.33041 28.33042 z M 93.958217,228.69526 c 0,-35.99459 0.0785,-65.4447 0.174546,-65.4447 0.742098,0 8.403157,4.63296 12.796597,7.73863 18.10505,12.7982 32.24049,34.06636 42.28993,63.62932 4.81543,14.16578 8.79994,30.30118 12.52213,50.7088 0.72462,3.97292 1.3917,7.58104 1.48238,8.01806 l 0.16488,0.79459 H 128.67345 93.958217 Z m 84.418103,65.22799 c 9.1e-4,-0.80394 3.36505,-19.46583 4.33612,-24.05418 1.56067,-7.37428 4.03434,-17.16206 5.84189,-23.11512 0.79617,-2.62212 1.5699,-5.19007 1.71939,-5.70655 l 0.27181,-0.93905 h 16.46524 16.46523 v 10.82951 10.82951 l 2.22498,3.03956 c 1.22373,1.67176 2.30172,3.03957 2.39553,3.03957 0.0937,0 1.1741,-1.34844 2.40066,-2.99654 l 2.2301,-2.99654 v -10.87254 -10.87253 h 9.25127 9.25127 v 10.71713 10.71713 l 2.21799,3.02114 c 1.21988,1.66162 2.32179,3.08525 2.44869,3.16363 0.12688,0.0784 1.27077,-1.2605 2.54197,-2.97528 l 2.31128,-3.11779 0.0102,-10.76298 0.0102,-10.76298 h 9.25127 9.25127 v 10.83386 10.83386 l 2.17859,2.96298 c 1.19822,1.62964 2.2994,2.96298 2.44704,2.96298 0.14765,0 1.24882,-1.33334 2.44705,-2.96298 l 2.17859,-2.96298 v -10.83386 -10.83386 h 16.45201 16.452 l 1.01669,3.25057 c 3.22394,10.30762 5.63572,20.29711 8.87123,36.74423 1.44059,7.32295 2.67524,13.47699 2.74367,13.67563 0.0993,0.28835 -15.58278,0.36118 -77.77957,0.36118 -42.84719,0 -77.90385,-0.0975 -77.9037,-0.21671 z m 170.44006,-0.57788 c 3.42422,-18.80616 5.00346,-26.4782 7.53862,-36.62302 6.41856,-25.68482 14.14127,-44.50771 24.83551,-60.53274 6.51367,-9.76054 13.08244,-16.95695 21.20306,-23.22898 3.01616,-2.32956 9.73245,-6.7289 12.97402,-8.4983 l 2.67419,-1.45971 v 65.56867 65.56867 H 383.35674 348.67171 Z M 193.98757,230.47049 c 0,-0.55428 4.09872,-9.94439 6.34446,-14.53504 5.92833,-12.1185 10.68335,-19.40478 18.2601,-27.9806 1.54442,-1.74808 3.27511,-3.62641 3.84597,-4.17406 l 1.0379,-0.99573 v 23.89415 23.89415 h -14.74422 c -8.10932,0 -14.74421,-0.0463 -14.74421,-0.10287 z m 38.7397,-27.7604 v -27.86328 l 1.22869,-0.9974 c 3.26468,-2.65016 11.13238,-7.18321 15.75607,-9.07801 l 1.51778,-0.62199 v 33.21198 33.21197 h -9.25127 -9.25127 z m 28.04291,-5.34997 v -33.21325 l 1.08414,0.4383 c 4.77121,1.92895 12.87586,6.56549 16.18971,9.2619 l 1.22869,0.99974 v 27.86328 27.86327 h -9.25127 -9.25127 z m 27.76687,9.30354 0.0131,-23.90971 2.48994,2.60045 c 7.77203,8.11702 13.93469,17.10944 19.90052,29.03838 2.73825,5.47527 7.07186,15.34236 7.07186,16.10176 0,0.0433 -6.63489,0.0788 -14.74421,0.0788 H 288.52405 Z M 174.693,227.97291 c 11.27422,-30.27614 24.02264,-49.2487 43.37868,-64.55746 6.79655,-5.37541 14.6863,-10.31047 22.895,-14.3209 4.43114,-2.16486 12.31863,-5.53124 14.5296,-6.20122 0.87954,-0.26653 8.72731,2.86475 15.53703,6.1993 19.86963,9.72966 35.55086,23.21775 47.53261,40.88479 7.85119,11.57657 13.89228,24.25126 21.00168,44.06321 0.99796,2.78104 1.88218,4.8614 1.96493,4.62303 0.0827,-0.23838 1.08007,-3.2289 2.21627,-6.6456 7.5686,-22.75993 17.05164,-40.90658 29.14166,-55.76524 3.33204,-4.09508 12.18572,-12.89641 16.09655,-16.00136 3.90912,-3.10358 11.8282,-8.40672 16.47883,-11.0353 4.24029,-2.39665 11.93213,-6.12374 17.27385,-8.37004 l 3.97516,-1.67164 V 112.20575 85.23702 h -34.1122 -34.11219 l -0.0741,21.30926 -0.0741,21.30925 -34.04178,0.0734 -34.04179,0.0734 V 106.6197 85.23702 h -34.25862 -34.2586 v 21.38268 21.38268 l -34.04179,-0.0734 -34.04174,-0.0734 -0.0741,-21.30925 -0.0741,-21.30926 H 119.39731 85.285113 v 26.96893 26.96892 l 4.69791,1.99202 c 12.718437,5.39292 24.037357,11.93055 33.029927,19.07758 4.33384,3.4444 13.2389,12.42294 17.00164,17.14194 11.70481,14.6794 20.67323,32.05055 28.39358,54.99616 1.18909,3.53405 2.16888,6.49057 2.17732,6.57003 0.008,0.0795 0.4156,-0.96073 0.90477,-2.31152 0.48918,-1.35079 1.93039,-5.25146 3.2027,-8.66817 z"
       id="path1" />
  </g>
</svg>
