<?xml version="1.0" encoding="UTF-8" standalone="no"?>
<!-- Created with Inkscape (http://www.inkscape.org/) -->

<svg
   width="512"
   height="512"
   viewBox="0 0 512 512"
   version="1.1"
   id="svg1"
   inkscape:version="1.4.3 (0d15f75042, 2025-12-25)"
   sodipodi:docname="weik_logo.svg"
   xmlns:inkscape="http://www.inkscape.org/namespaces/inkscape"
   xmlns:sodipodi="http://sodipodi.sourceforge.net/DTD/sodipodi-0.dtd"
   xmlns="http://www.w3.org/2000/svg"
   xmlns:svg="http://www.w3.org/2000/svg">
  <sodipodi:namedview
     id="namedview1"
     pagecolor="#ffffff"
     bordercolor="#000000"
     borderopacity="0.25"
     inkscape:showpageshadow="2"
     inkscape:pageopacity="0.0"
     inkscape:pagecheckerboard="0"
     inkscape:deskcolor="#d1d1d1"
     inkscape:document-units="px"
     inkscape:zoom="2.2890625"
     inkscape:cx="289.85666"
     inkscape:cy="228.47782"
     inkscape:window-width="2560"
     inkscape:window-height="1376"
     inkscape:window-x="0"
     inkscape:window-y="0"
     inkscape:window-maximized="1"
     inkscape:current-layer="layer1" />
  <defs
     id="defs1" />
  <g
     inkscape:label="Layer 1"
     inkscape:groupmode="layer"
     id="layer1">
    <path
       d="M 409.60356,0 V 51.18916 H 307.17118 V 0 H 204.79271 V 51.18916 H 102.39628 V 0 H 0 V 512 H 512 V 0 Z M 89.589989,12.98695 v -0.0906 51.09884 H 217.58104 V 12.98667 h 76.80182 V 63.99519 H 422.37392 V 12.98667 h 76.81978 v 181.79942 h -65.91061 c -2.32998,-12.96952 -11.4694,-23.87921 -23.89675,-28.34062 V 127.93625 H 102.50488 v 0.21659 h -0.23518 v 38.38322 c -10.710719,3.93763 -18.947686,12.66154 -22.433282,23.33699 -0.560227,1.58903 -1.011842,3.23259 -1.354854,4.91301 H 12.770196 V 12.89632 l 76.801816,0.0906 z M 396.5988,373.94803 v 35.76352 H 124.86629 l 107.20094,-166.3373 51.31581,85.81524 113.21576,-174.28552 v 22.27098 l 5.12955,1.04758 c 11.09046,2.25797 19.16412,12.0118 19.38056,23.31856 -0.1258,11.37972 -8.21822,21.22417 -19.36258,23.4998 l -5.12955,1.04758 v 0.72271 23.95063 l 5.12955,1.04758 c 11.09045,2.25797 19.14614,12.0118 19.38133,23.28246 -0.12658,11.36129 -8.23697,21.20574 -19.36336,23.46371 l -5.12956,1.04758 v 0.77646 23.95064 l 5.12956,1.04757 c 11.07248,2.24031 19.14615,11.99414 19.38133,23.2648 -0.14455,11.34286 -8.23697,21.18731 -19.36337,23.44528 l -5.12954,1.04758 v 0.83099 z m -286.63438,-195.7255 5.12955,-1.04758 v -0.63208 l 0.23518,-0.0538 v -35.5477 H 390.40271 L 283.72606,305.03993 232.41024,219.2247 115.32915,400.87934 v -27.76231 l -5.12955,-1.04757 c -11.234996,-2.27564 -19.381336,-12.26448 -19.381336,-23.75172 0,-2.11359 0.289102,-4.17264 0.794637,-6.1595 2.52922,-8.36295 9.465239,-14.99171 18.351519,-16.79809 l 5.12955,-1.04758 v -0.74113 l 0.23518,-0.0538 V 299.567 l -5.12955,-1.04834 c -11.234996,-2.27564 -19.381336,-12.26371 -19.381336,-23.75172 0,-2.61894 0.451625,-5.16569 1.246252,-7.56805 2.835515,-7.73087 9.519164,-13.74598 17.917864,-15.44407 l 5.13034,-1.04758 v -0.68584 l 0.2344,-0.0538 v -23.95063 l -5.12954,-1.04758 C 98.982571,222.69298 90.836241,212.70491 90.836241,201.2169 c 0,-2.70957 0.469581,-5.32851 1.318911,-7.78463 2.871458,-7.64101 9.500408,-13.58316 17.845208,-15.28125 z m -97.176176,90.56543 v -61.08737 h 65.422194 c 2.095572,13.33048 11.361574,24.60115 24.077232,29.17085 v 3.17959 c -11.017781,4.04592 -19.417281,13.13081 -22.722377,24.23942 -0.487558,1.5176 -0.867297,3.07053 -1.155616,4.64189 H 12.806292 v -0.12595 z m 65.548764,13.1861 c 2.294047,13.02251 11.469413,23.98673 23.950662,28.48424 v 3.12506 c -11.180304,4.11812 -19.669656,13.43801 -22.866923,24.78164 -0.433649,1.40854 -0.794637,2.85395 -1.065763,4.33469 h -65.56674 v -60.70797 h 65.548764 z m 355.090632,60.70796 c -2.07682,-13.34815 -11.34283,-24.63724 -24.0413,-29.20695 v -3.03443 c 12.48126,-4.49752 21.63944,-15.44407 23.93348,-28.46658 h 65.85591 v 60.70796 z m 65.74809,-73.76734 -65.87466,-0.45159 c -2.29327,-13.04095 -11.45144,-24.00517 -23.9327,-28.50268 v -3.08897 c 12.69848,-4.5697 21.98245,-15.84037 24.05927,-29.17085 h 65.74809 z m 0,230.27862 H 12.788244 V 355.75906 h 65.602683 c 2.366698,12.93266 11.488154,23.80625 23.896743,28.26767 v 38.96077 h 307.09867 v -0.46926 -38.49151 c 12.40937,-4.46142 21.53083,-15.33501 23.89675,-28.26767 H 499.1937 V 499.1933 Z"
       fill="#724896"
       id="path64"
       style="stroke-width:7.74654" />
  </g>
</svg>
